<svg width="25" height="24" viewBox="0 0 25 24" fill="none" xmlns="http://www.w3.org/2000/svg">
<path d="M22.4285 8.71004C22.4285 10.13 21.8785 11.46 20.8785 12.46L13.0285 20.31C12.9885 20.35 12.8785 20.44 12.8285 20.47C12.7085 20.55 12.5685 20.59 12.4285 20.59C12.2885 20.59 12.1385 20.55 12.0185 20.47C11.9585 20.43 11.9085 20.39 11.8485 20.33L3.98846 12.46C2.97846 11.46 2.42847 10.13 2.42847 8.71004C2.42847 7.29004 2.97846 5.96004 3.98846 4.96004C6.05846 2.90004 9.41846 2.90004 11.4885 4.96004L12.4285 5.91004L13.3785 4.96004C15.4485 2.90004 18.8085 2.90004 20.8685 4.96004C21.8785 5.96004 22.4285 7.29004 22.4285 8.71004Z" fill="#F34545"/>
</svg>
