<svg width="18" height="21" viewBox="0 0 18 21" fill="none" xmlns="http://www.w3.org/2000/svg">
<g id="logout">
<path id="combo shape" fill-rule="evenodd" clip-rule="evenodd" d="M3.47458 0.716486C5.16252 -0.408809 7.37968 0.622839 7.70853 2.51759H11C12.5188 2.51759 13.75 3.74881 13.75 5.26759C13.75 5.6818 13.4142 6.01759 13 6.01759C12.5858 6.01759 12.25 5.6818 12.25 5.26759C12.25 4.57723 11.6904 4.01759 11 4.01759H7.75V16.5176H11C11.6904 16.5176 12.25 15.9579 12.25 15.2676C12.25 14.8534 12.5858 14.5176 13 14.5176C13.4142 14.5176 13.75 14.8534 13.75 15.2676C13.75 16.7864 12.5188 18.0176 11 18.0176H7.70853C7.37968 19.9123 5.16252 20.944 3.47458 19.8187L1.47457 18.4854C0.709528 17.9753 0.25 17.1167 0.25 16.1972V4.33796C0.25 3.41849 0.709528 2.55985 1.47457 2.04982L3.47458 0.716486ZM14.4697 12.5303C14.1768 12.2374 14.1768 11.7626 14.4697 11.4697L15.1893 10.75L10 10.75C9.58579 10.75 9.25 10.4142 9.25 10C9.25 9.58579 9.58579 9.25 10 9.25L15.1893 9.25L14.4697 8.53033C14.1768 8.23744 14.1768 7.76256 14.4697 7.46967C14.7626 7.17678 15.2374 7.17678 15.5303 7.46967L16.8232 8.76256C17.5066 9.44598 17.5066 10.554 16.8232 11.2374L15.5303 12.5303C15.2374 12.8232 14.7626 12.8232 14.4697 12.5303Z" fill="white"/>
</g>
</svg>
