<svg width="20" height="20" viewBox="0 0 20 20" fill="none" xmlns="http://www.w3.org/2000/svg">
<g id="store">
<path id="Combo shape" fill-rule="evenodd" clip-rule="evenodd" d="M5.23122 0H14.7687C16.5861 0 18.2203 1.24475 18.8953 3.14305L19.6533 5.27487C19.8827 5.92019 20.0413 6.61074 19.8739 7.27488C19.4776 8.84776 18.1917 10 16.6666 10C14.8257 10 13.3333 8.32107 13.3333 6.25C13.3333 8.32107 11.8409 10 9.99996 10C8.15901 10 6.66663 8.32107 6.66663 6.25C6.66663 8.32107 5.17424 10 3.3333 10C1.8082 10 0.522322 8.84776 0.125977 7.27488C-0.0413761 6.61074 0.117227 5.92019 0.346674 5.27487L1.10466 3.14305C1.7796 1.24476 3.41387 0 5.23122 0ZM2 11.3002V15.9997C2 18.2088 3.79086 19.9997 6 19.9997H14C16.2091 19.9997 18 18.2088 18 15.9997V11.3003C17.5812 11.4295 17.1348 11.4997 16.6667 11.4997C15.3296 11.4997 14.1772 10.937 13.3334 10.0557C12.4896 10.937 11.3372 11.4997 10.0001 11.4997C8.66295 11.4997 7.51056 10.937 6.66674 10.0557C5.82292 10.937 4.67053 11.4997 3.3334 11.4997C2.86527 11.4997 2.41887 11.4295 2 11.3002ZM13.6532 14.6312C13.8566 14.992 13.729 15.4495 13.3682 15.6529C12.1531 16.338 11.1064 16.7474 10.0027 16.7496C8.8977 16.7517 7.84898 16.3455 6.62904 15.6515C6.269 15.4466 6.14317 14.9887 6.34799 14.6287C6.5528 14.2687 7.0107 14.1429 7.37074 14.3477C8.50693 14.994 9.282 15.2509 9.99983 15.2496C10.719 15.2482 11.4943 14.9874 12.6315 14.3462C12.9924 14.1428 13.4498 14.2704 13.6532 14.6312Z" fill="white"/>
</g>
</svg>
